<svg width="32" height="32" viewBox="0 0 32 32" fill="none"
                                    xmlns="http://www.w3.org/2000/svg">
                                    <path
                                        d="M28.7472 14.3198L26.9338 12.2131C26.5872 11.8131 26.3072 11.0664 26.3072 10.5331V8.26642C26.3072 6.85309 25.1472 5.69309 23.7338 5.69309H21.4672C20.9472 5.69309 20.1872 5.41309 19.7872 5.06642L17.6805 3.25309C16.7605 2.46642 15.2538 2.46642 14.3205 3.25309L12.2272 5.07975C11.8272 5.41309 11.0672 5.69309 10.5472 5.69309H8.24049C6.82716 5.69309 5.66716 6.85309 5.66716 8.26642V10.5464C5.66716 11.0664 5.38716 11.8131 5.05383 12.2131L3.25383 14.3331C2.48049 15.2531 2.48049 16.7464 3.25383 17.6664L5.05383 19.7864C5.38716 20.1864 5.66716 20.9331 5.66716 21.4531V23.7331C5.66716 25.1464 6.82716 26.3064 8.24049 26.3064H10.5472C11.0672 26.3064 11.8272 26.5864 12.2272 26.9331L14.3338 28.7464C15.2538 29.5331 16.7605 29.5331 17.6938 28.7464L19.8005 26.9331C20.2005 26.5864 20.9472 26.3064 21.4805 26.3064H23.7472C25.1605 26.3064 26.3205 25.1464 26.3205 23.7331V21.4664C26.3205 20.9464 26.6005 20.1864 26.9472 19.7864L28.7605 17.6798C29.5338 16.7598 29.5338 15.2398 28.7472 14.3198ZM21.5472 13.4798L15.1072 19.9198C14.9205 20.1064 14.6672 20.2131 14.4005 20.2131C14.1338 20.2131 13.8805 20.1064 13.6938 19.9198L10.4672 16.6931C10.0805 16.3064 10.0805 15.6664 10.4672 15.2798C10.8538 14.8931 11.4938 14.8931 11.8805 15.2798L14.4005 17.7998L20.1338 12.0664C20.5205 11.6798 21.1605 11.6798 21.5472 12.0664C21.9338 12.4531 21.9338 13.0931 21.5472 13.4798Z"
                                        fill="#FF0000" />
                                </svg>